<?xml version="1.0" standalone="no"?>
<!DOCTYPE svg PUBLIC "-//W3C//DTD SVG 20010904//EN"
 "http://www.w3.org/TR/2001/REC-SVG-20010904/DTD/svg10.dtd">
<svg version="1.0" xmlns="http://www.w3.org/2000/svg"
 width="1920.000000pt" height="1080.000000pt" viewBox="0 0 1920.000000 1080.000000"
 preserveAspectRatio="xMidYMid meet">

<g transform="translate(0.000000,1080.000000) scale(0.100000,-0.100000)"
fill="#000000" stroke="none">
<path d="M233 7348 c-6 -7 -56 -247 -112 -533 -56 -286 -106 -542 -111 -568
-6 -26 -10 -158 -10 -292 l0 -245 173 0 173 0 26 133 c71 363 121 603 128 610
4 4 25 -119 48 -275 44 -302 69 -449 80 -460 7 -7 101 -10 321 -9 l134 1 -8
53 c-5 28 -9 72 -11 97 -1 25 -4 52 -7 60 -3 8 -24 132 -46 275 -23 143 -44
274 -47 291 l-6 31 83 6 c60 5 88 12 100 24 12 13 39 130 92 398 41 209 72
385 70 391 -2 7 -14 15 -26 18 -12 3 -250 6 -528 6 -393 0 -509 -3 -516 -12z
m573 -340 c-2 -7 -10 -41 -16 -75 l-13 -63 -98 0 c-67 0 -99 4 -99 11 0 7 5
40 12 75 l11 64 103 0 c78 0 102 -3 100 -12z"/>
<path d="M446 5683 c-3 -4 -1 -12 5 -19 7 -8 6 -14 -2 -20 -8 -4 -9 -3 -5 4 4
7 2 12 -4 12 -6 0 -10 -10 -8 -22 2 -12 -3 -23 -12 -25 -13 -4 -13 -3 0 6 9 7
10 11 3 11 -16 0 -26 -17 -13 -25 5 -3 10 -11 10 -17 0 -7 -4 -7 -13 1 -11 8
-18 1 -36 -37 -12 -26 -21 -54 -19 -62 2 -9 -3 -14 -11 -12 -9 2 -11 -3 -7
-14 6 -15 4 -15 -10 -3 -16 13 -16 12 -4 -11 13 -24 12 -24 -5 -10 -17 14 -18
14 -5 -10 12 -22 12 -24 -2 -12 -14 11 -16 9 -14 -16 1 -22 -2 -28 -12 -24
-11 4 -13 -1 -8 -19 6 -20 5 -21 -4 -6 -8 13 -7 44 4 123 9 57 16 109 16 114
0 6 -58 10 -145 10 l-145 0 0 -985 0 -985 278 0 c253 0 280 2 295 18 11 12 42
196 112 662 114 766 140 931 166 1068 11 57 21 129 22 160 l2 57 -80 5 c-71 5
-126 19 -332 85 -6 2 -14 1 -17 -2z m-61 -146 c-8 -21 -18 -37 -20 -37 -3 0 2
16 10 36 8 20 15 39 15 42 0 3 2 3 5 0 3 -3 -2 -21 -10 -41z m-116 -217 c11
-24 11 -24 -3 -6 -9 11 -16 24 -16 30 0 12 5 7 19 -24z m2 -34 c5 3 9 -1 9 -8
0 -9 3 -9 10 2 9 13 10 13 10 0 0 -8 9 -21 20 -27 17 -11 19 -10 14 5 -3 9 1
6 9 -7 11 -18 16 -20 20 -10 4 10 6 9 6 -3 1 -10 6 -18 12 -18 5 0 7 5 3 12
-4 7 -3 8 4 4 6 -4 8 -14 5 -23 -4 -9 -2 -14 3 -10 10 6 6 -32 -42 -383 -37
-273 -114 -783 -118 -787 -2 -2 -44 -2 -93 -1 l-89 3 22 145 c12 80 54 357 94
615 72 478 80 520 87 497 3 -6 9 -10 14 -6z"/>
<path d="M1354 5669 c-45 -10 -104 -29 -132 -43 -28 -14 -58 -26 -66 -26 -23
0 -56 -50 -56 -86 0 -18 -27 -212 -60 -431 -33 -219 -60 -409 -60 -423 0 -47
12 -50 202 -50 98 0 178 -3 178 -7 -1 -5 -20 -134 -43 -288 l-42 -280 -196 -3
-196 -2 -6 -113 c-4 -61 -7 -151 -7 -199 l0 -88 354 0 c195 0 361 3 370 6 19
7 30 48 50 179 8 55 51 340 96 634 60 398 77 537 69 547 -8 10 -56 14 -193 16
l-181 3 14 93 13 92 193 0 192 0 6 122 c4 66 7 156 7 199 l0 79 -182 2 -183 3
-5 35 c-4 27 -9 34 -24 32 -10 -2 -16 1 -12 6 7 12 -8 11 -100 -9z"/>
<path d="M1502 5640 c0 -19 2 -27 5 -17 2 9 2 25 0 35 -3 9 -5 1 -5 -18z"/>
</g>
</svg>
